***************************************************************

[IMG]http://www.hotimg.org/images/67363952943939111394.png[/IMG]

***************************************************************

[IMG]http://www.hotimg.org/images/04207971466683843386.jpg[/IMG]

***************************************************************

FILM TITLE: In Time (2011)

***************************************************************

Genre:  Action | Sci-Fi | Thriller   

Rated PG-13 for violence, some sexualty and partial nudity, and strong language

Release: 28 October 2011 (Sweden) 

Director: Andrew Niccol

Writer: Andrew Niccol

Stars:  Justin Timberlake, Amanda Seyfried and Cillian Murphy

Country: USA 

Language: English 

Plot:
In a future where people stop aging at 25, but are engineered to live 
only one more year, having the means to buy your way out of the situation 
is a shot at immortal youth. Here, Will Salas finds himself accused of 
murder and on the run with a hostage - a connection that becomes an 
important part of the way against the system.

IMDB Rating: 6.5/10 from 61,131 users   Metascore: 53/100 
 
http://www.imdb.com/title/tt1637688/

****************************************************************

[URL=http://www.hotimg.org/viewer.php?file=10738574069641480002.png][IMG]http://www.hotimg.org/images/10738574069641480002_thumb.png[/IMG][/URL]
[URL=http://www.hotimg.org/viewer.php?file=74946876939749771449.png][IMG]http://www.hotimg.org/images/74946876939749771449_thumb.png[/IMG][/URL]
[URL=http://www.hotimg.org/viewer.php?file=32728353265347837060.png][IMG]http://www.hotimg.org/images/32728353265347837060_thumb.png[/IMG][/URL]
[URL=http://www.hotimg.org/viewer.php?file=28400738498316883935.png][IMG]http://www.hotimg.org/images/28400738498316883935_thumb.png[/IMG][/URL]
[URL=http://www.hotimg.org/viewer.php?file=23943918727902080224.png][IMG]http://www.hotimg.org/images/23943918727902080224_thumb.png[/IMG][/URL]

****************************************************************

General
Complete name                    : In Time 2011 720p BDRip XviD ac3 (avi) [GREYSHADOW].avi
Format                           : AVI
Format/Info                      : Audio Video Interleave
Format profile                   : OpenDML
File size                        : 3.55 GiB
Duration                         : 1h 49mn
Overall bit rate                 : 4647 Kbps
Writing library                  : VirtualDub build 32842/release

Video
ID                               : 0
Format                           : MPEG-4 Visual
Format profile                   : Simple@L5
Format settings, BVOP            : No
Format settings, QPel            : No
Format settings, GMC             : No warppoints
Format settings, Matrix          : Default (H.263)
Codec ID                         : XVID
Codec ID/Hint                    : XviD
Duration                         : 1h 49mn
Bit rate                         : 3997 Kbps
Width                            : 1280 pixels
Height                           : 544 pixels
Display aspect ratio             : 2.35:1
Frame rate                       : 23.976 fps
Color space                      : YUV
Chroma subsampling               : 4:2:0
Bit depth                        : 8 bits
Scan type                        : Progressive
Compression mode                 : Lossy
Bits/(Pixel*Frame)               : 0.239
Stream size                      : 3.05 GiB (86%)
Writing library                  : XviD 64

Audio
ID                               : 1
Format                           : AC-3
Format/Info                      : Audio Coding 3
Mode extension                   : CM (complete main)
Codec ID                         : 2000
Duration                         : 1h 49mn
Bit rate mode                    : Constant
Bit rate                         : 640 Kbps
Channel(s)                       : 6 channels
Channel positions                : Front: L C R, Side: L R, LFE
Sampling rate                    : 48.0 KHz
Bit depth                        : 16 bits
Compression mode                 : Lossy
Stream size                      : 500 MiB (14%)
Alignment                        : Aligned on interleaves
Interleave, duration             : 42 ms (1.00 video frame)
Interleave, preload duration     : 512 ms

****************************************************************

Video Source: In Time 2011 1080p Blu-Ray AVC DTS-HD MA5.1 Remux-fs (36.68GB)

Thanks: karantina7 (chdbits.org)

****************************************************************

I provide a small sample, so please download this to check your 
compatibility first if you are unsure.

****************************************************************

Hash: F02663B41CAC1F70827D849B93158B8DB8B5043D

Trackers:
.udp://tracker.1337x.org:80/announce

****************************************************************